<svg xmlns="http://www.w3.org/2000/svg" xmlns:xlink="http://www.w3.org/1999/xlink" width="300" zoomAndPan="magnify" viewBox="0 0 224.87999 74.999997" height="100" preserveAspectRatio="xMidYMid meet" version="1.0"><defs><g/><clipPath id="id1"><path d="M 56 54 L 71.210938 54 L 71.210938 69.496094 L 56 69.496094 Z M 56 54 " clip-rule="nonzero"/></clipPath><clipPath id="id2"><path d="M 7.496094 5.777344 L 71 5.777344 L 71 69 L 7.496094 69 Z M 7.496094 5.777344 " clip-rule="nonzero"/></clipPath></defs><g clip-path="url(#id1)"><path fill="#ffffff" d="M 70.0625 54.78125 C 69.429688 54.78125 68.914062 55.296875 68.914062 55.933594 C 68.914062 62.144531 63.859375 67.195312 57.648438 67.195312 C 57.015625 67.195312 56.5 67.710938 56.5 68.347656 C 56.5 68.980469 57.015625 69.496094 57.648438 69.496094 C 65.128906 69.496094 71.210938 63.410156 71.210938 55.933594 C 71.210938 55.296875 70.699219 54.78125 70.0625 54.78125 Z M 70.0625 54.78125 " fill-opacity="1" fill-rule="nonzero"/></g><path fill="#ffffff" d="M 57.648438 65.355469 C 62.847656 65.355469 67.074219 61.128906 67.074219 55.933594 C 67.074219 55.296875 66.558594 54.78125 65.925781 54.78125 C 65.289062 54.78125 64.777344 55.296875 64.777344 55.933594 C 64.777344 59.863281 61.578125 63.058594 57.648438 63.058594 C 57.015625 63.058594 56.5 63.574219 56.5 64.207031 C 56.5 64.84375 57.015625 65.355469 57.648438 65.355469 Z M 57.648438 65.355469 " fill-opacity="1" fill-rule="nonzero"/><path fill="#ffffff" d="M 57.648438 61.21875 C 60.566406 61.21875 62.9375 58.847656 62.9375 55.933594 C 62.9375 55.296875 62.421875 54.78125 61.785156 54.78125 C 61.152344 54.78125 60.636719 55.296875 60.636719 55.933594 C 60.636719 57.582031 59.296875 58.921875 57.648438 58.921875 C 57.015625 58.921875 56.5 59.433594 56.5 60.070312 C 56.5 60.703125 57.015625 61.21875 57.648438 61.21875 Z M 57.648438 61.21875 " fill-opacity="1" fill-rule="nonzero"/><g clip-path="url(#id2)"><path fill="#ffffff" d="M 56.988281 56.894531 C 57.210938 57.121094 57.503906 57.230469 57.800781 57.230469 C 58.09375 57.230469 58.386719 57.121094 58.613281 56.894531 C 59.0625 56.445312 59.0625 55.71875 58.613281 55.269531 L 58.207031 54.867188 L 64.222656 48.851562 C 64.4375 48.636719 64.558594 48.34375 64.558594 48.039062 C 64.558594 47.734375 64.4375 47.441406 64.222656 47.226562 C 61.246094 44.25 56.953125 43.378906 53.203125 44.609375 L 51.378906 42.785156 L 54.269531 39.890625 C 54.71875 39.445312 54.71875 38.714844 54.269531 38.265625 L 46.875 30.871094 L 49.796875 27.953125 L 53.425781 31.582031 C 53.648438 31.804688 53.945312 31.917969 54.238281 31.917969 C 54.53125 31.917969 54.828125 31.808594 55.050781 31.582031 L 70.007812 16.628906 C 70.222656 16.410156 70.34375 16.121094 70.34375 15.816406 C 70.34375 15.511719 70.222656 15.21875 70.007812 15.003906 L 61.121094 6.117188 C 60.90625 5.898438 60.613281 5.777344 60.308594 5.777344 C 60.003906 5.777344 59.710938 5.898438 59.496094 6.117188 L 44.539062 21.070312 C 44.324219 21.285156 44.203125 21.578125 44.203125 21.882812 C 44.203125 22.1875 44.324219 22.480469 44.539062 22.695312 L 48.171875 26.328125 L 45.25 29.246094 L 39.671875 23.667969 C 37.460938 21.457031 34.011719 21.210938 31.523438 22.929688 L 28.921875 20.328125 C 28.472656 19.878906 27.742188 19.878906 27.296875 20.328125 L 22.042969 25.578125 C 21.828125 25.792969 21.707031 26.085938 21.707031 26.390625 C 21.707031 26.695312 21.828125 26.988281 22.042969 27.203125 L 24.648438 29.808594 C 23.910156 30.867188 23.515625 32.121094 23.515625 33.4375 C 23.515625 35.144531 24.179688 36.75 25.386719 37.957031 L 30.964844 43.53125 L 28.042969 46.453125 L 24.414062 42.824219 C 23.964844 42.375 23.238281 42.375 22.789062 42.824219 L 7.832031 57.777344 C 7.382812 58.226562 7.382812 58.953125 7.832031 59.402344 L 16.71875 68.289062 C 16.941406 68.515625 17.238281 68.625 17.53125 68.625 C 17.824219 68.625 18.121094 68.515625 18.34375 68.289062 L 33.300781 53.335938 C 33.746094 52.886719 33.746094 52.15625 33.300781 51.710938 L 29.667969 48.078125 L 32.589844 45.160156 L 39.984375 52.554688 C 40.199219 52.769531 40.492188 52.890625 40.796875 52.890625 C 41.101562 52.890625 41.394531 52.769531 41.609375 52.554688 L 44.5 49.660156 L 46.324219 51.484375 C 45.097656 55.234375 45.96875 59.53125 48.941406 62.507812 C 49.167969 62.730469 49.460938 62.84375 49.757812 62.84375 C 50.050781 62.84375 50.34375 62.730469 50.570312 62.507812 L 56.582031 56.492188 Z M 59.214844 24.167969 L 51.957031 16.90625 L 55.332031 13.53125 L 62.589844 20.792969 Z M 60.308594 8.554688 L 67.566406 15.816406 L 64.214844 19.167969 L 56.957031 11.90625 Z M 50.332031 18.53125 L 57.589844 25.792969 L 54.238281 29.144531 L 46.976562 21.882812 Z M 18.621094 50.238281 L 25.882812 57.5 L 22.507812 60.875 L 15.25 53.613281 Z M 17.53125 65.851562 L 10.269531 58.589844 L 13.621094 55.238281 L 20.882812 62.5 Z M 27.507812 55.875 L 20.25 48.613281 L 23.601562 45.261719 L 30.859375 52.523438 Z M 39.011719 26.257812 L 48.765625 36.011719 L 37.730469 47.046875 L 27.976562 37.296875 Z M 35.15625 24.097656 C 35.902344 24.097656 36.652344 24.304688 37.308594 24.710938 L 26.425781 35.59375 C 26.027344 34.953125 25.8125 34.210938 25.8125 33.4375 C 25.8125 32.34375 26.238281 31.320312 27.011719 30.546875 L 32.261719 25.292969 C 33.058594 24.496094 34.109375 24.097656 35.15625 24.097656 Z M 28.109375 22.765625 L 29.824219 24.480469 L 28.011719 26.292969 L 26.199219 28.109375 L 24.480469 26.390625 Z M 40.796875 50.117188 L 39.355469 48.671875 L 50.390625 37.636719 L 51.832031 39.078125 Z M 46.128906 48.035156 L 49.753906 44.410156 L 50.976562 45.632812 C 50.25 46.070312 49.566406 46.601562 48.941406 47.226562 C 48.320312 47.851562 47.789062 48.535156 47.347656 49.257812 Z M 49.8125 60.011719 C 47.273438 56.683594 47.527344 51.894531 50.570312 48.851562 C 52.226562 47.195312 54.40625 46.363281 56.582031 46.363281 C 58.398438 46.363281 60.214844 46.941406 61.730469 48.09375 Z M 49.8125 60.011719 " fill-opacity="1" fill-rule="nonzero"/></g><g fill="#ffffff" fill-opacity="1"><g transform="translate(90.285966, 45.861016)"><g><path d="M 9.246094 0.316406 C 13.535156 0.316406 17.027344 -2.222656 17.027344 -6.507812 C 17.027344 -14.960938 5.753906 -12.898438 5.753906 -17.78125 C 5.753906 -19.644531 7.222656 -20.519531 8.96875 -20.519531 C 10.558594 -20.519531 11.984375 -19.804688 13.058594 -18.457031 L 15.796875 -20.957031 C 14.289062 -22.820312 11.789062 -24.128906 8.96875 -24.128906 C 5.238281 -24.128906 1.867188 -21.789062 1.867188 -17.503906 C 1.867188 -9.605469 13.136719 -11.550781 13.136719 -6.507812 C 13.136719 -4.5625 11.507812 -3.414062 9.285156 -3.414062 C 6.867188 -3.414062 5.039062 -4.761719 4.207031 -6.785156 L 0.875 -4.761719 C 2.261719 -1.785156 5.4375 0.316406 9.246094 0.316406 Z M 9.246094 0.316406 "/></g></g></g><g fill="#ffffff" fill-opacity="1"><g transform="translate(108.304501, 45.861016)"><g><path d="M 19.921875 -3.09375 C 19.167969 -3.09375 18.457031 -3.492188 18.457031 -4.882812 L 18.457031 -15.875 L 14.683594 -15.875 L 14.683594 -14.207031 C 13.335938 -15.4375 11.589844 -16.191406 9.566406 -16.191406 C 5.082031 -16.191406 1.507812 -12.542969 1.507812 -7.9375 C 1.507812 -3.332031 5.082031 0.316406 9.566406 0.316406 C 11.867188 0.316406 13.890625 -0.714844 15.242188 -2.339844 C 16.035156 -0.753906 17.582031 0.316406 19.527344 0.316406 C 20.003906 0.316406 20.441406 0.199219 20.796875 0 L 20.796875 -3.09375 Z M 10.042969 -3.175781 C 7.382812 -3.175781 5.277344 -5.277344 5.277344 -7.9375 C 5.277344 -10.597656 7.382812 -12.699219 10.042969 -12.699219 C 12.660156 -12.699219 14.804688 -10.597656 14.804688 -7.9375 C 14.804688 -5.277344 12.660156 -3.175781 10.042969 -3.175781 Z M 10.042969 -3.175781 "/></g></g></g><g fill="#ffffff" fill-opacity="1"><g transform="translate(129.656862, 45.861016)"><g><path d="M 11.035156 -12.699219 L 11.035156 -15.875 L 7.023438 -15.875 L 7.023438 -22.382812 L 3.253906 -22.382812 L 3.253906 -15.875 L 0.636719 -15.875 L 0.636719 -12.699219 L 3.253906 -12.699219 L 3.253906 -4.921875 C 3.253906 -1.984375 5.753906 0.316406 8.652344 0.316406 C 9.566406 0.316406 10.558594 0.078125 10.953125 -0.199219 L 10.953125 -3.09375 L 9.128906 -3.09375 C 7.9375 -3.09375 7.023438 -3.96875 7.023438 -5.359375 L 7.023438 -12.699219 Z M 11.035156 -12.699219 "/></g></g></g><g fill="#ffffff" fill-opacity="1"><g transform="translate(141.72214, 45.861016)"><g><path d="M 18.375 -8.015625 C 18.296875 -12.78125 14.804688 -16.191406 10 -16.191406 C 5.160156 -16.191406 1.507812 -12.699219 1.507812 -7.9375 C 1.507812 -3.175781 5.121094 0.316406 10.042969 0.316406 C 14.128906 0.316406 17.183594 -2.101562 18.097656 -5.554688 L 14.328125 -5.554688 C 13.652344 -3.890625 12.066406 -2.816406 10.042969 -2.816406 C 7.382812 -2.816406 5.515625 -4.683594 5.316406 -7.34375 L 18.335938 -7.34375 Z M 10.042969 -13.019531 C 12.105469 -13.019531 13.574219 -11.867188 14.25 -10.042969 L 5.636719 -10.042969 C 6.351562 -11.828125 7.898438 -13.019531 10.042969 -13.019531 Z M 10.042969 -13.019531 "/></g></g></g><g fill="#ffffff" fill-opacity="1"><g transform="translate(161.486965, 45.861016)"><g><path d="M 2.621094 0 L 6.390625 0 L 6.390625 -28.257812 L 2.621094 -28.257812 Z M 2.621094 0 "/></g></g></g><g fill="#ffffff" fill-opacity="1"><g transform="translate(170.496233, 45.861016)"><g><path d="M 2.621094 0 L 6.390625 0 L 6.390625 -28.257812 L 2.621094 -28.257812 Z M 2.621094 0 "/></g></g></g><g fill="#ffffff" fill-opacity="1"><g transform="translate(179.5055, 45.861016)"><g><path d="M 4.683594 -18.691406 C 5.914062 -18.691406 6.945312 -19.726562 6.945312 -20.914062 C 6.945312 -22.1875 5.914062 -23.179688 4.683594 -23.179688 C 3.453125 -23.179688 2.421875 -22.1875 2.421875 -20.914062 C 2.421875 -19.726562 3.453125 -18.691406 4.683594 -18.691406 Z M 2.816406 0 L 6.546875 0 L 6.546875 -15.875 L 2.816406 -15.875 Z M 2.816406 0 "/></g></g></g><g fill="#ffffff" fill-opacity="1"><g transform="translate(188.871965, 45.861016)"><g><path d="M 11.035156 -12.699219 L 11.035156 -15.875 L 7.023438 -15.875 L 7.023438 -22.382812 L 3.253906 -22.382812 L 3.253906 -15.875 L 0.636719 -15.875 L 0.636719 -12.699219 L 3.253906 -12.699219 L 3.253906 -4.921875 C 3.253906 -1.984375 5.753906 0.316406 8.652344 0.316406 C 9.566406 0.316406 10.558594 0.078125 10.953125 -0.199219 L 10.953125 -3.09375 L 9.128906 -3.09375 C 7.9375 -3.09375 7.023438 -3.96875 7.023438 -5.359375 L 7.023438 -12.699219 Z M 11.035156 -12.699219 "/></g></g></g><g fill="#ffffff" fill-opacity="1"><g transform="translate(200.937243, 45.861016)"><g><path d="M 18.375 -8.015625 C 18.296875 -12.78125 14.804688 -16.191406 10 -16.191406 C 5.160156 -16.191406 1.507812 -12.699219 1.507812 -7.9375 C 1.507812 -3.175781 5.121094 0.316406 10.042969 0.316406 C 14.128906 0.316406 17.183594 -2.101562 18.097656 -5.554688 L 14.328125 -5.554688 C 13.652344 -3.890625 12.066406 -2.816406 10.042969 -2.816406 C 7.382812 -2.816406 5.515625 -4.683594 5.316406 -7.34375 L 18.335938 -7.34375 Z M 10.042969 -13.019531 C 12.105469 -13.019531 13.574219 -11.867188 14.25 -10.042969 L 5.636719 -10.042969 C 6.351562 -11.828125 7.898438 -13.019531 10.042969 -13.019531 Z M 10.042969 -13.019531 "/></g></g></g><g fill="#ffffff" fill-opacity="1"><g transform="translate(99.612736, 55.915406)"><g><path d="M 2.507812 -2.175781 C 3.136719 -2.261719 3.613281 -2.785156 3.613281 -3.429688 C 3.613281 -4.175781 3.015625 -4.761719 2.285156 -4.761719 L 0.578125 -4.761719 L 0.578125 0 L 1.085938 0 L 1.085938 -2.152344 L 1.984375 -2.152344 L 3.332031 0 L 3.914062 0 Z M 1.085938 -2.636719 L 1.085938 -4.253906 L 2.253906 -4.253906 C 2.730469 -4.253906 3.105469 -3.921875 3.105469 -3.445312 C 3.105469 -2.960938 2.738281 -2.636719 2.253906 -2.636719 Z M 1.085938 -2.636719 "/></g></g></g><g fill="#ffffff" fill-opacity="1"><g transform="translate(105.756529, 55.915406)"><g><path d="M 3.222656 -4.269531 L 3.222656 -4.761719 L 0.617188 -4.761719 L 0.617188 0 L 3.222656 0 L 3.222656 -0.492188 L 1.128906 -0.492188 L 1.128906 -2.136719 L 2.953125 -2.136719 L 2.953125 -2.628906 L 1.128906 -2.628906 L 1.128906 -4.269531 Z M 3.222656 -4.269531 "/></g></g></g><g fill="#ffffff" fill-opacity="1"><g transform="translate(111.614561, 55.915406)"><g><path d="M 3.222656 -4.269531 L 3.222656 -4.761719 L 0.617188 -4.761719 L 0.617188 0 L 1.128906 0 L 1.128906 -2.136719 L 2.953125 -2.136719 L 2.953125 -2.628906 L 1.128906 -2.628906 L 1.128906 -4.269531 Z M 3.222656 -4.269531 "/></g></g></g><g fill="#ffffff" fill-opacity="1"><g transform="translate(117.139208, 55.915406)"><g><path d="M 3.222656 -4.269531 L 3.222656 -4.761719 L 0.617188 -4.761719 L 0.617188 0 L 3.222656 0 L 3.222656 -0.492188 L 1.128906 -0.492188 L 1.128906 -2.136719 L 2.953125 -2.136719 L 2.953125 -2.628906 L 1.128906 -2.628906 L 1.128906 -4.269531 Z M 3.222656 -4.269531 "/></g></g></g><g fill="#ffffff" fill-opacity="1"><g transform="translate(122.997241, 55.915406)"><g><path d="M 2.507812 -2.175781 C 3.136719 -2.261719 3.613281 -2.785156 3.613281 -3.429688 C 3.613281 -4.175781 3.015625 -4.761719 2.285156 -4.761719 L 0.578125 -4.761719 L 0.578125 0 L 1.085938 0 L 1.085938 -2.152344 L 1.984375 -2.152344 L 3.332031 0 L 3.914062 0 Z M 1.085938 -2.636719 L 1.085938 -4.253906 L 2.253906 -4.253906 C 2.730469 -4.253906 3.105469 -3.921875 3.105469 -3.445312 C 3.105469 -2.960938 2.738281 -2.636719 2.253906 -2.636719 Z M 1.085938 -2.636719 "/></g></g></g><g fill="#ffffff" fill-opacity="1"><g transform="translate(129.141035, 55.915406)"><g><path d="M 2.507812 -2.175781 C 3.136719 -2.261719 3.613281 -2.785156 3.613281 -3.429688 C 3.613281 -4.175781 3.015625 -4.761719 2.285156 -4.761719 L 0.578125 -4.761719 L 0.578125 0 L 1.085938 0 L 1.085938 -2.152344 L 1.984375 -2.152344 L 3.332031 0 L 3.914062 0 Z M 1.085938 -2.636719 L 1.085938 -4.253906 L 2.253906 -4.253906 C 2.730469 -4.253906 3.105469 -3.921875 3.105469 -3.445312 C 3.105469 -2.960938 2.738281 -2.636719 2.253906 -2.636719 Z M 1.085938 -2.636719 "/></g></g></g><g fill="#ffffff" fill-opacity="1"><g transform="translate(135.284829, 55.915406)"><g><path d="M 3.453125 0 L 4.007812 0 L 2.285156 -4.761719 L 1.722656 -4.761719 L 0 0 L 0.554688 0 L 0.945312 -1.109375 L 3.0625 -1.109375 Z M 1.109375 -1.59375 L 2.007812 -4.160156 L 2.898438 -1.59375 Z M 1.109375 -1.59375 "/></g></g></g><g fill="#ffffff" fill-opacity="1"><g transform="translate(141.452436, 55.915406)"><g><path d="M 1.085938 -0.507812 L 1.085938 -4.761719 L 0.578125 -4.761719 L 0.578125 0 L 2.859375 0 L 2.859375 -0.507812 Z M 1.085938 -0.507812 "/></g></g></g><g fill="#ffffff" fill-opacity="1"><g transform="translate(146.540505, 55.915406)"><g/></g></g><g fill="#ffffff" fill-opacity="1"><g transform="translate(150.612545, 55.915406)"><g><path d="M 2.832031 0.0625 C 3.746094 0.0625 4.539062 -0.4375 4.960938 -1.175781 L 4.523438 -1.421875 C 4.199219 -0.832031 3.5625 -0.445312 2.832031 -0.445312 C 1.761719 -0.445312 0.898438 -1.300781 0.898438 -2.382812 C 0.898438 -3.460938 1.761719 -4.316406 2.832031 -4.316406 C 3.5625 -4.316406 4.199219 -3.929688 4.523438 -3.339844 L 4.960938 -3.585938 C 4.539062 -4.324219 3.746094 -4.824219 2.832031 -4.824219 C 1.484375 -4.824219 0.390625 -3.730469 0.390625 -2.382812 C 0.390625 -1.03125 1.484375 0.0625 2.832031 0.0625 Z M 2.832031 0.0625 "/></g></g></g><g fill="#ffffff" fill-opacity="1"><g transform="translate(157.994623, 55.915406)"><g><path d="M 2.832031 0.0625 C 4.191406 0.0625 5.277344 -1.03125 5.277344 -2.382812 C 5.277344 -3.730469 4.191406 -4.824219 2.832031 -4.824219 C 1.484375 -4.824219 0.390625 -3.730469 0.390625 -2.382812 C 0.390625 -1.03125 1.484375 0.0625 2.832031 0.0625 Z M 2.832031 -0.445312 C 1.761719 -0.445312 0.898438 -1.300781 0.898438 -2.382812 C 0.898438 -3.460938 1.761719 -4.316406 2.832031 -4.316406 C 3.914062 -4.316406 4.769531 -3.460938 4.769531 -2.382812 C 4.769531 -1.300781 3.914062 -0.445312 2.832031 -0.445312 Z M 2.832031 -0.445312 "/></g></g></g><g fill="#ffffff" fill-opacity="1"><g transform="translate(165.829154, 55.915406)"><g><path d="M 4.777344 -4.761719 L 2.945312 -0.609375 L 1.121094 -4.761719 L 0.578125 -4.761719 L 0.578125 0 L 1.085938 0 L 1.085938 -3.761719 L 2.730469 0 L 3.152344 0 L 4.808594 -3.746094 L 4.808594 0 L 5.308594 0 L 5.308594 -4.761719 Z M 4.777344 -4.761719 "/></g></g></g><g fill="#ffffff" fill-opacity="1"><g transform="translate(173.877998, 55.915406)"><g><path d="M 4.777344 -4.761719 L 2.945312 -0.609375 L 1.121094 -4.761719 L 0.578125 -4.761719 L 0.578125 0 L 1.085938 0 L 1.085938 -3.761719 L 2.730469 0 L 3.152344 0 L 4.808594 -3.746094 L 4.808594 0 L 5.308594 0 L 5.308594 -4.761719 Z M 4.777344 -4.761719 "/></g></g></g><g fill="#ffffff" fill-opacity="1"><g transform="translate(181.926846, 55.915406)"><g><path d="M 2.339844 0.0625 C 3.382812 0.0625 4.136719 -0.628906 4.136719 -1.5625 L 4.136719 -4.761719 L 3.628906 -4.761719 L 3.628906 -1.644531 C 3.628906 -0.953125 3.078125 -0.445312 2.339844 -0.445312 C 1.601562 -0.445312 1.0625 -0.953125 1.0625 -1.644531 L 1.0625 -4.761719 L 0.554688 -4.761719 L 0.554688 -1.5625 C 0.554688 -0.628906 1.308594 0.0625 2.339844 0.0625 Z M 2.339844 0.0625 "/></g></g></g><g fill="#ffffff" fill-opacity="1"><g transform="translate(188.777097, 55.915406)"><g><path d="M 4 -4.761719 L 4 -0.847656 L 1.054688 -4.761719 L 0.578125 -4.761719 L 0.578125 0 L 1.085938 0 L 1.085938 -3.914062 L 4.023438 0 L 4.5 0 L 4.5 -4.761719 Z M 4 -4.761719 "/></g></g></g><g fill="#ffffff" fill-opacity="1"><g transform="translate(196.016295, 55.915406)"><g><path d="M 0.617188 0 L 1.128906 0 L 1.128906 -4.761719 L 0.617188 -4.761719 Z M 0.617188 0 "/></g></g></g><g fill="#ffffff" fill-opacity="1"><g transform="translate(199.913705, 55.915406)"><g><path d="M 3.214844 -4.761719 L 0.0703125 -4.761719 L 0.0703125 -4.253906 L 1.390625 -4.253906 L 1.390625 0 L 1.898438 0 L 1.898438 -4.253906 L 3.214844 -4.253906 Z M 3.214844 -4.761719 "/></g></g></g><g fill="#ffffff" fill-opacity="1"><g transform="translate(205.358971, 55.915406)"><g><path d="M 3.84375 -4.761719 L 3.214844 -4.761719 L 1.929688 -2.785156 L 0.644531 -4.761719 L 0.0078125 -4.761719 L 1.675781 -2.253906 L 1.675781 0 L 2.183594 0 L 2.183594 -2.261719 Z M 3.84375 -4.761719 "/></g></g></g><path stroke-linecap="butt" transform="matrix(0.000000000000000092, 1.509492, -1.511005, 0.000000000000000093, 82.4029, 16.86738)" fill="none" stroke-linejoin="miter" d="M -0.000127719 0.00036789 L 27.319185 0.00036789 " stroke="#ffffff" stroke-width="1" stroke-opacity="1" stroke-miterlimit="4"/></svg>